<?xml version="1.0" standalone="no"?>
<!DOCTYPE svg PUBLIC "-//W3C//DTD SVG 20010904//EN"
 "http://www.w3.org/TR/2001/REC-SVG-20010904/DTD/svg10.dtd">
<svg version="1.0" xmlns="http://www.w3.org/2000/svg"
 width="22" height="22" viewBox="0 0 4278.000000 4236.000000"
 style="margin-right: 30px; margin-bottom: -5px" 
 preserveAspectRatio="xMidYMid meet">
<metadata>
Created by potrace 1.16, written by Peter Selinger 2001-2019
</metadata>
<g transform="translate(0.000000,4236.000000) scale(0.100000,-0.100000)"
fill="#000000" stroke="none">
<path d="M12405 42015 c-1430 -173 -3570 -1259 -5840 -2964 -3232 -2428 -5884
-5508 -6339 -7364 -49 -199 -60 -290 -60 -497 0 -168 3 -207 22 -283 30 -121
74 -223 132 -305 643 -915 3047 -198 6005 1792 2646 1780 5235 4272 6580 6333
43 67 81 121 83 118 8 -8 -118 -296 -233 -530 -755 -1535 -2341 -3427 -4342
-5181 -1950 -1709 -4112 -3114 -5897 -3834 -189 -76 -442 -169 -588 -216 -49
-15 -88 -31 -88 -35 0 -6 3537 -3606 4091 -4164 l208 -210 -81 -140 c-936
-1620 -1309 -3042 -1058 -4035 133 -529 441 -925 915 -1181 l94 -50 -25 -57
c-298 -667 -549 -1425 -669 -2024 -122 -610 -149 -1287 -79 -1988 78 -791 292
-1659 551 -2240 405 -907 1096 -1584 1967 -1927 l123 -48 37 -185 c332 -1674
1148 -2990 2351 -3795 207 -138 338 -214 549 -316 487 -236 956 -368 1526
-431 149 -16 670 -16 815 0 502 57 915 161 1346 341 l138 58 93 -55 c417 -245
929 -455 1404 -573 l125 -32 -6 -41 c-17 -133 -51 -835 -60 -1276 -14 -603 37
-1547 106 -1955 154 -922 750 -1719 1609 -2150 412 -207 825 -310 1290 -322
392 -10 729 39 1080 156 964 324 1709 1115 1950 2071 43 170 59 266 79 460
l18 175 141 356 c182 457 178 449 347 949 161 477 241 696 407 1110 63 157
141 358 173 446 l58 162 66 7 c208 21 516 76 753 136 1158 290 1999 917 2464
1838 l73 144 123 -4 c68 -2 346 -4 618 -4 480 1 646 7 1020 41 1721 153 3275
643 4405 1388 1017 671 1688 1522 2044 2595 28 84 51 159 51 165 0 8 115 11
417 11 639 0 1078 44 1688 169 1263 259 2632 887 3570 1637 222 177 327 271
531 474 780 778 1232 1650 1364 2635 31 225 38 654 16 890 -71 735 -325 1424
-764 2065 l-75 110 22 175 c134 1070 96 2099 -115 3123 -154 750 -395 1443
-735 2117 -148 293 -270 504 -454 780 -532 804 -1211 1527 -1895 2020 -788
567 -1602 884 -2490 971 -130 13 -525 18 -739 9 l-124 -5 -107 255 c-465 1113
-877 1827 -1432 2477 -128 149 -457 478 -608 607 -1034 884 -2409 1353 -3875
1323 -638 -13 -1189 -109 -1800 -312 -291 -97 -494 -179 -765 -311 -564 -274
-1072 -616 -1555 -1046 l-141 -125 -154 135 c-479 417 -939 744 -1417 1006
-118 65 -123 69 -133 109 -106 406 -312 737 -608 975 -404 325 -936 489 -1647
509 -654 18 -1411 -104 -2289 -368 -109 -33 -199 -59 -200 -57 -2 2 -1087
1526 -2412 3388 -1326 1862 -2429 3412 -2451 3445 -137 203 -382 335 -703 380
-135 18 -429 18 -585 0z m17421 -10714 c900 -142 1491 -552 1991 -1380 178
-294 324 -602 614 -1294 238 -569 302 -713 424 -962 181 -369 351 -645 548
-890 353 -439 653 -620 952 -575 159 24 290 78 593 242 222 120 286 150 395
182 158 48 247 59 432 53 261 -8 420 -50 690 -182 567 -276 1187 -900 1641
-1651 358 -592 608 -1321 713 -2074 119 -851 78 -1714 -114 -2445 -49 -185
-56 -226 -56 -355 0 -147 31 -273 101 -418 67 -139 149 -260 331 -487 206
-257 279 -357 353 -479 249 -410 273 -841 72 -1259 -275 -572 -1030 -1137
-2065 -1544 -827 -326 -1731 -451 -2476 -342 -587 85 -1018 280 -1412 641
-590 540 -807 1205 -667 2041 78 462 250 939 568 1575 143 286 247 478 604
1113 329 586 409 735 496 925 187 404 265 705 254 979 -11 242 -82 418 -237
579 -118 122 -254 203 -416 247 -119 33 -350 33 -494 1 -521 -117 -1050 -521
-1266 -967 -63 -129 -353 -739 -520 -1091 -436 -918 -676 -1546 -820 -2144
-20 -85 -41 -172 -47 -193 l-9 -37 -72 62 c-296 257 -758 495 -1338 689 -813
272 -1644 373 -2244 273 -185 -31 -400 -97 -530 -161 -156 -79 -331 -223 -420
-348 -57 -80 -117 -202 -148 -301 -71 -225 -76 -565 -11 -769 68 -213 221
-357 443 -417 110 -30 386 -30 555 1 271 49 545 131 965 290 204 77 217 81
295 81 890 -4 1974 -745 2786 -1905 526 -752 858 -1568 952 -2340 16 -134 16
-535 -1 -655 -87 -637 -367 -1088 -906 -1462 -758 -525 -2019 -877 -3400 -949
-255 -13 -833 -7 -1030 11 -747 68 -1226 200 -1546 427 -134 95 -380 346 -611
623 -366 441 -530 596 -800 759 -650 391 -1389 663 -2108 776 -665 104 -1403
79 -2100 -71 -844 -181 -1657 -514 -2587 -1058 -1 -1 7 -27 18 -58 40 -119 49
-213 59 -594 10 -386 23 -525 61 -652 45 -147 138 -267 256 -330 l61 -32 114
73 c740 481 1598 770 2453 826 1332 88 2590 -429 3318 -1364 188 -241 383
-593 483 -870 56 -156 63 -200 40 -260 -60 -157 -408 -284 -926 -339 -255 -27
-369 -28 -590 -6 -225 22 -419 26 -520 9 -190 -30 -347 -117 -520 -289 -179
-178 -319 -377 -455 -650 -114 -228 -195 -431 -382 -960 -63 -179 -181 -494
-263 -700 -182 -460 -285 -744 -445 -1225 -68 -203 -186 -530 -263 -725 -149
-377 -183 -471 -238 -644 -71 -226 -114 -433 -114 -555 0 -35 -2 -62 -5 -59
-7 7 -31 267 -47 503 -16 246 -16 1129 0 1420 16 278 37 583 62 890 74 923
121 2107 99 2505 -10 191 -23 240 -64 253 -41 12 -449 0 -832 -24 -438 -27
-869 -35 -1069 -20 -439 34 -786 133 -1117 319 -140 79 -247 158 -582 433
-395 323 -604 472 -782 559 -126 62 -189 81 -285 87 -74 5 -99 2 -159 -17
-126 -41 -268 -140 -508 -355 -386 -346 -447 -393 -596 -465 -214 -104 -392
-149 -620 -157 -179 -6 -279 6 -426 53 -407 128 -915 544 -1201 984 -197 302
-316 630 -369 1020 -20 144 -17 507 5 665 73 528 254 1003 563 1478 165 254
325 448 554 673 595 582 1253 902 2214 1078 355 65 775 111 1520 166 729 54
1055 86 1385 136 1277 192 2084 638 2691 1485 103 144 150 234 181 345 19 68
22 105 22 264 1 155 -3 204 -22 299 -62 307 -216 639 -402 866 -224 272 -475
419 -741 432 -298 15 -624 -105 -1169 -432 -551 -331 -795 -463 -1505 -815
-922 -457 -1153 -552 -1555 -637 -112 -24 -147 -27 -330 -27 -180 -1 -216 2
-294 22 -116 29 -176 63 -245 138 -184 201 -275 551 -351 1344 -34 361 -38
390 -91 636 -121 573 -282 1072 -434 1351 l-34 63 42 24 c23 13 123 70 222
126 2242 1278 4616 3165 6444 5123 101 108 187 197 191 197 4 0 57 -51 117
-113 344 -355 552 -744 691 -1292 55 -217 90 -399 167 -868 115 -700 183 -984
314 -1309 48 -121 153 -324 218 -423 213 -322 632 -597 1073 -702 146 -34 396
-43 520 -18 370 76 595 325 674 750 82 445 -52 972 -414 1621 -120 216 -240
407 -545 874 -466 711 -581 908 -700 1199 -165 402 -143 626 74 785 25 19 125
78 221 131 213 119 328 196 426 288 140 130 262 319 300 462 22 87 29 237 14
336 -44 307 -250 632 -510 809 -138 94 -330 160 -467 160 l-52 0 123 193 c261
409 488 804 678 1182 61 121 112 222 114 224 22 24 910 -826 1418 -1359 328
-344 532 -548 686 -688 229 -208 469 -382 638 -464 l85 -41 17 24 c70 91 250
404 447 772 273 512 406 731 594 978 658 863 1504 1408 2388 1539 195 28 190
28 476 25 204 -2 288 -7 391 -24z m-18598 -11337 c6 -88 44 -356 68 -479 67
-344 128 -550 276 -930 167 -428 191 -490 235 -620 212 -621 198 -1083 -44
-1535 -137 -255 -331 -501 -723 -915 -133 -141 -301 -333 -475 -540 -581 -693
-890 -983 -1211 -1137 -226 -108 -415 -102 -566 17 -163 128 -275 366 -392
833 -107 428 -154 770 -163 1194 -10 479 31 757 187 1271 147 486 331 918 727
1707 l253 506 217 66 c403 123 925 317 1351 503 131 56 242 102 247 101 6 -2
11 -20 13 -42z"/>
</g>
</svg>
