<?xml version="1.0" standalone="no"?>
<!DOCTYPE svg PUBLIC "-//W3C//DTD SVG 20010904//EN"
 "http://www.w3.org/TR/2001/REC-SVG-20010904/DTD/svg10.dtd">
<svg 
    version="1.0" 
    xmlns="http://www.w3.org/2000/svg"
    height="22"
    width="22"
    style="margin-right: 30px; margin-bottom: -5px"
    viewBox="0 0 192.000000 192.000000"
    preserveAspectRatio="xMidYMid meet"
 >
<metadata>
Created by potrace 1.16, written by Peter Selinger 2001-2019
</metadata>
<g transform="translate(0.000000,192.000000) scale(0.100000,-0.100000)"
fill="#000000" stroke="none">
<path d="M835 1905 c-64 -21 -98 -38 -142 -70 -46 -33 -112 -118 -130 -168 -8
-22 -12 -135 -12 -357 -1 -320 0 -326 23 -375 45 -97 145 -179 265 -215 150
-47 261 -11 261 84 -1 66 -41 99 -133 109 -72 7 -144 54 -163 107 -15 42 -19
545 -5 583 13 33 58 75 100 93 83 35 192 3 243 -71 27 -39 27 -44 28 -187 0
-91 4 -148 10 -149 19 -3 25 -5 65 -26 22 -12 68 -44 103 -72 l62 -51 0 243
c0 166 -4 253 -13 277 -32 92 -107 170 -213 222 -65 31 -75 33 -189 35 -80 1
-133 -3 -160 -12z"/>
<path d="M1024 1164 c-36 -37 -42 -69 -22 -107 15 -29 52 -63 88 -82 16 -8 39
-29 52 -47 22 -32 23 -39 26 -294 2 -170 0 -276 -8 -303 -20 -77 -84 -121
-175 -121 -67 0 -109 18 -156 66 -33 34 -34 36 -37 139 -3 58 -8 105 -13 105
-26 0 -156 46 -196 70 l-33 19 1 -162 c1 -180 5 -201 63 -279 84 -116 202
-169 370 -167 107 2 166 15 232 54 91 53 93 58 140 258 33 139 43 201 43 262
l-1 80 -18 -70 c-9 -38 -38 -162 -65 -275 -42 -184 -60 -239 -72 -227 -2 2 10
62 27 133 17 71 39 165 50 209 10 44 35 149 55 233 44 183 44 259 1 339 -34
60 -50 79 -106 124 -58 47 -129 79 -176 79 -29 0 -44 -7 -70 -36z"/>
</g>
</svg>
