<?xml version="1.0" encoding="UTF-8"?>
<svg id="Layer_1" data-name="Layer 1" xmlns="http://www.w3.org/2000/svg" viewBox="0 0 425 366.95">
  <defs>
    <style>
      .cls-1 {
        fill: #0f4c7c;
      }

      .cls-1, .cls-2, .cls-3, .cls-4 {
        fill-rule: evenodd;
      }

      .cls-2 {
        fill: #124c7c;
      }

      .cls-3 {
        fill: #908f8f;
      }

      .cls-5 {
        fill: #114c7b;
        font-family: ConthraxSb-Regular, Conthrax;
        font-size: 91px;
      }

      .cls-4 {
        fill: #d17228;
      }
    </style>
  </defs>
  <polygon class="cls-4" points="326.87 97.42 312.92 124.88 302.83 121.59 299.41 111.37 326.87 97.42"/>
  <polygon class="cls-4" points="98.3 98.68 112.24 126.14 118.39 118.77 125.76 112.62 98.3 98.68"/>
  <path class="cls-1" d="M213.16,0l19.47,80.61,3.61.48c53.54,9.55,95.99,51.08,106.85,104.11l1.12,7.33,80.79,19.47h0s-100.79,0-100.79,0c0-61.54-49.94-111.42-111.54-111.42s-111.54,49.88-111.54,111.42H0s81.15-19.56,81.15-19.56l1.11-7.24c10.86-53.02,53.31-94.55,106.85-104.11l4.61-.61L213.16,0Z"/>
  <text class="cls-5" transform="translate(32.61 342.19)"><tspan x="0" y="0">GUIDE</tspan></text>
  <g id="layer1">
    <g id="g854">
      <g id="g1009">
        <path id="path827" class="cls-3" d="M214.49,191.88l7.29,4.21v8.42l-3.64,2.11-3.64,2.1-3.64-2.1-3.64-2.11v-8.42l7.29-4.21"/>
        <path id="path829" class="cls-3" d="M208.6,220.47l3.08,1.78,3.08,1.78v7.11l-3.08,1.78-3.08,1.78-3.08-1.78-3.08-1.78v-7.11l1-.58.08-.04,5.08-2.93"/>
        <path id="path831" class="cls-4" d="M176.19,247.44l5,2.89v5.78l-2.5,1.45-2.5,1.44-2.5-1.44-2.5-1.45v-5.78l5-2.89"/>
        <path id="path833" class="cls-3" d="M247.87,217.68l5,2.89v5.78l-2.5,1.45-2.5,1.44-2.5-1.44-2.5-1.45v-5.78l5-2.89"/>
        <path id="path835" class="cls-4" d="M164.47,211.67l7.29,4.21v8.42l-7.29,4.21-7.29-4.21v-8.42l7.29-4.21"/>
        <path id="path837" class="cls-4" d="M233.66,216.19l5,2.89v5.78l-2.5,1.45-2.5,1.44-5-2.89v-5.78l5-2.89"/>
        <path id="path839" class="cls-4" d="M263.58,173.52l5,2.89v5.78l-5,2.89-5-2.89v-5.78l5-2.89"/>
        <path id="path841" class="cls-4" d="M265.08,210.55l7.29,4.21v8.42l-7.29,4.21-7.29-4.21v-8.42l7.29-4.21"/>
        <path id="path843" class="cls-4" d="M189.15,176.12l7.29,4.21v8.42l-3.64,2.11-3.64,2.1-3.64-2.1-3.64-2.11v-8.42l7.29-4.21"/>
        <path id="path845" class="cls-3" d="M195.11,128.03l7.29,4.21v8.42l-3.64,2.11-3.64,2.1-3.64-2.1-3.64-2.11v-8.42l7.29-4.21"/>
        <path id="path847" class="cls-3" d="M143.15,202.9l5,2.89v5.78l-2.5,1.45-2.5,1.44-2.5-1.44-2.5-1.45v-5.78l5-2.89"/>
        <path id="path849" class="cls-4" d="M140.16,178.93l6.15,3.56v7.11l-3.08,1.78-3.08,1.78-3.08-1.78-3.08-1.78v-7.11l6.16-3.56"/>
        <path id="path851" class="cls-3" d="M148.44,159.28l4.37,2.53,4.37,2.53v10.1l-4.37,2.53-4.37,2.53-8.75-5.05v-10.1l8.75-5.05"/>
        <path id="path853" class="cls-4" d="M248.78,159.56l2.5,1.44,2.5,1.45v5.78l-2.5,1.44-2.5,1.45-2.5-1.45-2.5-1.44v-5.78l2.5-1.45,2.5-1.44"/>
        <path id="path855" class="cls-4" d="M225.87,127l5,2.89v5.78l-5,2.89-5-2.89v-5.78l5-2.89"/>
        <path id="path857" class="cls-3" d="M251.34,141.46l3.08,1.78,3.08,1.78v7.11l-6.15,3.56-6.15-3.56v-7.11l3.08-1.78,3.08-1.78"/>
        <path id="path859" class="cls-4" d="M269.2,149.88l3.08,1.78,3.08,1.78v7.11l-3.08,1.78-3.08,1.78-3.08-1.78-3.08-1.78v-7.11l3.08-1.78,3.08-1.78"/>
        <path id="path861" class="cls-3" d="M280.14,163.54l6.15,3.56v7.11l-3.08,1.78-3.08,1.78-3.08-1.78-3.08-1.78v-7.11l6.15-3.56"/>
        <path id="path863" class="cls-2" d="M186.66,157.7l16.59,2.82v-2.95l12.84-7.41,12.83,7.41v14.83l-1.73,1,10.61,13.9,8.57-4.95,12.84,7.41v5.15l13.51-.17v-4.49l9.64-5.57,9.64,5.57v11.14l-9.64,5.57-9.64-5.57v-4.26l-13.51.17v7.29l-12.84,7.41-12.83-7.41v-14.83l2.18-1.26-10.61-13.9-9.02,5.21-3.21-1.86-15.33,26.57.53.31v11.04l-.5.29-.14.08-4.13,2.39-4.78,2.76-.33-.19-1.04,8.16,1.53.88,3.64,2.1v8.42l-7.29,4.21-7.29-4.21v-8.42l7.15-4.13,1.06-8.31-2.21-1.28-4.78-2.76v-11.04l.3-.17-8.73-5.76-3.04,1.76-4.78,2.76-4.78-2.76-4.78-2.76v-11.04l4.78-2.76,4.78-2.76,4.78,2.76,4.77,2.76v10.32l9.31,6.14,2.17-1.25,4.78-2.76,4.78,2.76,2.18,1.26,15.33-26.57-7.56-4.37v-9.46l-16.59-2.82v4.23l-12.84,7.41-12.83-7.41v-14.83l12.83-7.41,12.84,7.41v8.17"/>
      </g>
    </g>
  </g>
</svg>
